<svg xmlns="http://www.w3.org/2000/svg" version="1.1" xmlns:xlink="http://www.w3.org/1999/xlink" xmlns:svgjs="http://svgjs.dev/svgjs" width="128" height="128" viewBox="0 0 128 128"><g transform="matrix(0.8046875,0,0,0.8046875,12.506335372881338,16.111414505716162)"><svg viewBox="0 0 59 55" data-background-color="#ffffff" preserveAspectRatio="xMidYMid meet" height="119" width="128" xmlns="http://www.w3.org/2000/svg" xmlns:xlink="http://www.w3.org/1999/xlink"><g id="tight-bounds" transform="matrix(1,0,0,1,-0.0036289999999894462,0.005559425614606539)"><svg viewBox="0 0 59.00725799999999 54.98888114877077" height="54.98888114877077" width="59.00725799999999"><g><svg viewBox="0 0 59.00725799999999 54.98888114877077" height="54.98888114877077" width="59.00725799999999"><g><svg viewBox="0 0 59.00725799999999 54.98888114877077" height="54.98888114877077" width="59.00725799999999"><g><svg viewBox="0 0 59.00725799999999 54.98888114877077" height="54.98888114877077" width="59.00725799999999"><g id="textblocktransform"><svg viewBox="0 0 59.00725799999999 54.98888114877077" height="54.98888114877077" width="59.00725799999999" id="textblock"><g><svg viewBox="0 0 59.00725799999999 54.98888114877077" height="54.98888114877077" width="59.00725799999999"><g><svg viewBox="0 0 59.00725799999999 54.98888114877077" height="54.98888114877077" width="59.00725799999999"><g><svg xmlns="http://www.w3.org/2000/svg" xmlns:xlink="http://www.w3.org/1999/xlink" xmlns:a="http://ns.adobe.com/AdobeSVGViewerExtensions/3.0/" version="1.1" x="0" y="0" viewBox="0 0 87.739 81.764" enable-background="new -6.13 -8.611 100 100" xml:space="preserve" height="54.98888114877077" width="59.00725799999999" class="icon-icon-0" data-fill-palette-color="accent" id="icon-0"><path d="M46.797 57.512l27.021 24.252L87.739 66.25 60.715 42.001 46.797 57.512zM55.678 63.094l5.098-5.676 4.775 4.287-5.094 5.68L55.678 63.094zM61.987 68.758l5.099-5.68 5.595 5.025-5.094 5.676L61.987 68.758zM68.458 61.551l5.094-5.678 5.598 5.023-5.094 5.674L68.458 61.551zM66.928 60.176l-4.78-4.291 5.095-5.676 4.781 4.289L66.928 60.176zM65.713 48.836l-5.097 5.678-4.814-4.32 5.098-5.68L65.713 48.836zM54.429 51.723l4.815 4.32-5.092 5.68-4.819-4.324L54.429 51.723zM69.114 75.15l5.099-5.678 4.565 4.102-5.099 5.676L69.114 75.15zM80.15 72.045l-4.567-4.1 5.098-5.678 4.563 4.098L80.15 72.045zM0 15.511l27.023 24.253 13.92-15.513L13.92 0 0 15.511zM18.622 6.611l-5.096 5.68L8.957 8.193l5.103-5.679L18.622 6.611zM15.291 26.887l5.094-5.678 5.201 4.67-5.092 5.673L15.291 26.887zM13.759 25.512l-5.173-4.643 5.098-5.677 5.174 4.645L13.759 25.512zM21.757 19.678L26.855 14l5.203 4.67-5.096 5.68L21.757 19.678zM25.328 12.624l-5.101 5.682-5.169-4.643 5.096-5.677L25.328 12.624zM7.586 9.72l4.565 4.1L7.06 19.497l-4.567-4.1L7.586 9.72zM22.021 32.929l5.096-5.679 4.815 4.324-5.094 5.675L22.021 32.929zM33.307 30.042l-4.815-4.322 5.096-5.678 4.813 4.322L33.307 30.042zM17.282 65.361c1.144-1.27 3.099-1.375 4.368-0.234 1.273 1.141 1.38 3.096 0.237 4.369-1.141 1.271-3.099 1.377-4.368 0.236C16.247 68.592 16.143 66.637 17.282 65.361zM18.102 69.08c0.913 0.816 2.312 0.742 3.134-0.17 0.818-0.912 0.741-2.313-0.172-3.131s-2.312-0.742-3.13 0.168C17.118 66.859 17.196 68.262 18.102 69.08zM52.777 44.893l3.395 3.041-3.844 4.285-3.393-3.047-3.82 4.258-0.009-0.01c2.31 6.443 1.104 13.916-3.789 19.367l-1.712-1.533c6.248-6.959 5.671-17.654-1.271-23.912l-0.04-0.037c-6.967-6.231-17.666-5.648-23.909 1.309l-1.712-1.535c4.893-5.453 12.191-7.457 18.849-5.852l-0.01-0.008 3.799-4.234-3.644-3.271 3.848-4.282 3.642 3.271 3.716-4.142 13.605 12.211L52.777 44.893zM29.421 57.232c7.91 7.1 13.234 14.063 11.892 15.557-1.28 1.434-8.251-2.711-15.811-9.334l4.372-4.869-2.667-2.395-4.36 4.859c-6.942-6.525-11.413-12.592-10.175-13.973C14.011 45.588 21.513 50.133 29.421 57.232zM24.826 62.861c0.225 0.199 0.451 0.396 0.676 0.594l-3.105 3.463-2.668-2.396 3.12-3.471c0.235 0.223 0.474 0.443 0.718 0.668l-2.423 2.701 1.263 1.139L24.826 62.861zM29.874 58.586l-4.372 4.869c-0.225-0.197-0.451-0.395-0.676-0.594l3.619-4.029-1.267-1.139-3.613 4.025c-0.244-0.225-0.483-0.445-0.718-0.668l4.36-4.859L29.874 58.586z" fill="#7b66ff" data-fill-palette-color="accent"></path></svg></g></svg></g></svg></g></svg></g></svg></g></svg></g></svg></g><defs></defs></svg><rect width="59.00725799999999" height="54.98888114877077" fill="none" stroke="none" visibility="hidden"></rect></g></svg></g></svg>